<svg xmlns="http://www.w3.org/2000/svg" version="1.1" xmlns:xlink="http://www.w3.org/1999/xlink" width="1000" height="1000"><metadata><rdf:RDF xmlns:rdf="http://www.w3.org/1999/02/22-rdf-syntax-ns#" xmlns:dc="http://purl.org/dc/elements/1.1/"><rdf:Description><dc:creator>RealFaviconGenerator</dc:creator><dc:source>https://realfavicongenerator.net</dc:source></rdf:Description></rdf:RDF></metadata><g clip-path="url(#SvgjsClipPath1001)"><rect width="1000" height="1000" fill="#ffffff"></rect><g transform="matrix(3.5,0,0,3.5,150,150)"><svg xmlns="http://www.w3.org/2000/svg" version="1.1" xmlns:xlink="http://www.w3.org/1999/xlink" viewBox="0 0 200 200" width="200" height="200"><rect width="200" height="200" fill="url('#gradient')"></rect><defs><linearGradient id="gradient" gradientTransform="rotate(50 0.5 0.5)"><stop offset="0%" stop-color="#ffffff"></stop><stop offset="100%" stop-color="#ffffff"></stop></linearGradient><clipPath id="SvgjsClipPath1001"><rect width="1000" height="1000" x="0" y="0" rx="350" ry="350"></rect></clipPath></defs><g><g fill="fff" transform="matrix(2.145625982189628,0,0,2.145625982189628,0.06532196780971589,115.04255660108524)" stroke="#000000" stroke-width="0.2"><path d="M9.98 0L9.15-2.66L4.45-2.66L3.63 0L-0.03 0L5.19-14.22L8.41-14.22L13.66 0L9.98 0ZM6.80-10.23L5.27-5.30L8.33-5.30L6.80-10.23ZM20.08-2.97L20.08-2.97Q20.08-3.39 19.64-3.64Q19.20-3.90 17.97-4.17Q16.74-4.44 15.94-4.89Q15.14-5.33 14.72-5.97Q14.30-6.60 14.30-7.42L14.30-7.42Q14.30-8.88 15.50-9.82Q16.70-10.76 18.64-10.76L18.64-10.76Q20.73-10.76 22.00-9.81Q23.27-8.87 23.27-7.32L23.27-7.32L19.97-7.32Q19.97-8.59 18.63-8.59L18.63-8.59Q18.12-8.59 17.76-8.31Q17.41-8.02 17.41-7.59L17.41-7.59Q17.41-7.15 17.84-6.88Q18.27-6.60 19.21-6.43Q20.16-6.25 20.87-6.01L20.87-6.01Q23.25-5.19 23.25-3.07L23.25-3.07Q23.25-1.62 21.97-0.71Q20.68 0.20 18.64 0.20L18.64 0.20Q17.29 0.20 16.22-0.29Q15.16-0.78 14.56-1.62Q13.96-2.46 13.96-3.39L13.96-3.39L17.04-3.39Q17.06-2.66 17.53-2.32Q18.00-1.98 18.73-1.98L18.73-1.98Q19.40-1.98 19.74-2.26Q20.08-2.53 20.08-2.97ZM25.33-13.19L28.62-13.19L28.62-10.57L30.36-10.57L30.36-8.28L28.62-8.28L28.62-3.45Q28.62-2.85 28.84-2.62Q29.05-2.38 29.69-2.38L29.69-2.38Q30.18-2.38 30.51-2.44L30.51-2.44L30.51-0.09Q29.62 0.20 28.65 0.20L28.65 0.20Q26.95 0.20 26.14-0.61Q25.33-1.41 25.33-3.04L25.33-3.04L25.33-8.28L23.98-8.28L23.98-10.57L25.33-10.57L25.33-13.19ZM38.11-10.64L38.05-7.59L36.96-7.67Q35.41-7.67 34.97-6.69L34.97-6.69L34.97 0L31.68 0L31.68-10.57L34.77-10.57L34.87-9.21Q35.70-10.76 37.19-10.76L37.19-10.76Q37.71-10.76 38.11-10.64L38.11-10.64ZM38.48-4.82L38.47-5.38Q38.47-6.96 39.08-8.20Q39.70-9.43 40.85-10.10Q42.00-10.76 43.55-10.76L43.55-10.76Q45.93-10.76 47.29-9.29Q48.66-7.82 48.66-5.29L48.66-5.29L48.66-5.18Q48.66-2.71 47.29-1.25Q45.92 0.20 43.57 0.20L43.57 0.20Q41.32 0.20 39.95-1.16Q38.58-2.51 38.48-4.82L38.48-4.82ZM41.77-5.77L41.76-5.18Q41.76-3.71 42.22-3.03Q42.68-2.34 43.57-2.34L43.57-2.34Q45.33-2.34 45.37-5.05L45.37-5.05L45.37-5.38Q45.37-8.22 43.55-8.22L43.55-8.22Q41.90-8.22 41.77-5.77L41.77-5.77ZM64.28-14.22L66.26-5.30L67.89-14.22L71.29-14.22L68.27 0L64.72 0L62.81-8.11L60.95 0L57.40 0L54.38-14.22L57.78-14.22L59.41-5.30L61.37-14.22L64.28-14.22ZM71.77-4.82L71.76-5.38Q71.76-6.96 72.37-8.20Q72.99-9.43 74.14-10.10Q75.29-10.76 76.85-10.76L76.85-10.76Q79.22-10.76 80.59-9.29Q81.95-7.82 81.95-5.29L81.95-5.29L81.95-5.18Q81.95-2.71 80.58-1.25Q79.21 0.20 76.87 0.20L76.87 0.20Q74.61 0.20 73.24-1.16Q71.88-2.51 71.77-4.82L71.77-4.82ZM75.06-5.77L75.05-5.18Q75.05-3.71 75.51-3.03Q75.97-2.34 76.87-2.34L76.87-2.34Q78.62-2.34 78.66-5.05L78.66-5.05L78.66-5.38Q78.66-8.22 76.85-8.22L76.85-8.22Q75.20-8.22 75.06-5.77L75.06-5.77ZM83.00-4.82L82.99-5.38Q82.99-6.96 83.60-8.20Q84.22-9.43 85.37-10.10Q86.52-10.76 88.08-10.76L88.08-10.76Q90.45-10.76 91.82-9.29Q93.18-7.82 93.18-5.29L93.18-5.29L93.18-5.18Q93.18-2.71 91.81-1.25Q90.44 0.20 88.10 0.20L88.10 0.20Q85.84 0.20 84.47-1.16Q83.11-2.51 83.00-4.82L83.00-4.82ZM86.29-5.77L86.28-5.18Q86.28-3.71 86.74-3.03Q87.20-2.34 88.10-2.34L88.10-2.34Q89.85-2.34 89.89-5.05L89.89-5.05L89.89-5.38Q89.89-8.22 88.08-8.22L88.08-8.22Q86.43-8.22 86.29-5.77L86.29-5.77Z"></path></g></g></svg></g></g></svg>